<svg width="154" height="43" viewBox="0 0 154 43" fill="none" xmlns="http://www.w3.org/2000/svg">
<g clip-path="url(#clip0_33_10902)">
<path d="M25.3168 14.4576C24.6073 13.7375 23.8017 13.0876 22.9038 12.5115C20.7198 11.1082 18.1626 10.3954 15.3061 10.3954C10.8939 10.3954 7.19854 11.8911 4.32356 14.8417C1.45227 17.7849 0 21.6957 0 26.4595C0 31.2233 1.45597 35.1932 4.32356 38.2915C7.22071 41.4157 10.9124 43.0036 15.3024 43.0036C18.1626 43.0036 20.7235 42.2798 22.9075 40.8581C23.8017 40.2746 24.6036 39.621 25.3131 38.8972V42.4719H31.6137V0.635132H25.3131V14.4576H25.3168ZM15.8604 37.2317C13.2552 37.2317 11.0824 36.2641 9.2162 34.2737C7.32788 32.2573 6.40774 29.7019 6.40774 26.4595C6.40774 23.2171 7.3094 20.7651 9.16077 18.9149C11.0121 17.0648 13.1961 16.1637 15.8346 16.1637C18.4731 16.1637 20.6533 17.1017 22.5195 19.0331C24.4004 20.9756 25.3131 23.483 25.3131 26.6995C25.3131 29.9161 24.4004 32.4235 22.5195 34.366C20.6496 36.2974 18.4731 37.2354 15.8604 37.2354V37.2317Z" fill="#222222"/>
<path d="M44.2037 0C43.1062 0 42.1195 0.406218 41.3509 1.17434C40.5823 1.94246 40.1758 2.92846 40.1758 4.02525C40.1758 5.12204 40.5823 6.10804 41.3509 6.87616C42.1195 7.64428 43.1062 8.0505 44.2037 8.0505C45.3012 8.0505 46.2916 7.64059 47.0454 6.86139C47.7845 6.09327 48.1762 5.11465 48.1762 4.02894C48.1762 2.94323 47.7845 1.96092 47.0417 1.1965C46.2879 0.417297 45.3049 0.00738578 44.2 0.00738578L44.2037 0Z" fill="#DF5E54"/>
<path d="M47.2746 10.9272H40.974V42.4719H47.2746V10.9272Z" fill="#222222"/>
<path d="M114.881 0.635132H108.58V42.4682H114.881V0.635132Z" fill="#222222"/>
<path d="M147.696 10.9273V14.4577C146.986 13.7376 146.181 13.0876 145.283 12.5115C143.099 11.1082 140.542 10.3955 137.685 10.3955C133.273 10.3955 129.577 11.8911 126.702 14.8417C123.835 17.785 122.383 21.6921 122.383 26.4596C122.383 31.2271 123.839 35.1933 126.706 38.2916C129.603 41.4158 133.295 43.0037 137.685 43.0037C140.545 43.0037 143.106 42.2799 145.29 40.8581C146.184 40.2747 146.986 39.621 147.696 38.8972V42.4719H153.996V10.9273H147.696ZM138.243 37.2317C135.638 37.2317 133.465 36.2642 131.599 34.2737C129.71 32.2574 128.79 29.7019 128.79 26.4596C128.79 23.2172 129.692 20.7651 131.543 18.915C133.395 17.0649 135.579 16.1638 138.217 16.1638C140.856 16.1638 143.036 17.1018 144.902 19.0332C146.783 20.9756 147.696 23.4831 147.696 26.6996C147.696 29.9161 146.783 32.4236 144.902 34.366C143.032 36.2974 140.856 37.2354 138.243 37.2354V37.2317Z" fill="#222222"/>
<path d="M58.368 41.9401C56.9379 41.9401 55.7812 40.7842 55.7812 39.3551V14.0699C55.7812 12.6407 56.9379 11.4849 58.368 11.4849C59.7981 11.4849 60.9547 12.6407 60.9547 14.0699V39.3551C60.9547 40.7842 59.7981 41.9401 58.368 41.9401Z" fill="#DF5E54"/>
<path d="M70.8879 42.6566C69.4578 42.6566 68.3011 41.5007 68.3011 40.0716V24.5134L56.8419 16.1564C56.2321 15.7096 55.8478 15.0227 55.7887 14.2693C55.7296 13.516 56.003 12.7737 56.5389 12.2419L67.5916 1.20021C68.6042 0.192052 70.2412 0.192052 71.25 1.20021C72.2589 2.20837 72.2589 3.84801 71.25 4.85617L62.3369 13.7634L72.4178 21.1123C73.0866 21.5997 73.4783 22.3752 73.4783 23.1987V40.0679C73.4783 41.497 72.3217 42.6529 70.8916 42.6529L70.8879 42.6566Z" fill="#DF5E54"/>
<path d="M99.15 42.5864C98.6363 42.5864 98.1227 42.4313 97.6829 42.1322L83.5519 32.4088C82.3768 31.6001 82.0774 29.99 82.8867 28.8119C83.696 27.6339 85.3072 27.3385 86.486 28.1472L96.5632 35.0824V20.5214L85.1224 13.4347L72.6543 25.0895C71.6122 26.0644 69.9752 26.009 68.9996 24.9676C68.024 23.9262 68.0795 22.2903 69.1215 21.3154L83.0382 8.309C83.8919 7.51134 85.1741 7.38578 86.1682 7.9988L100.514 16.8876C101.275 17.3603 101.737 18.1912 101.737 19.0849V40.0014C101.737 40.9615 101.205 41.8441 100.355 42.291C99.9777 42.4904 99.5638 42.5864 99.15 42.5864Z" fill="#DF5E54"/>
</g>
<defs>
<clipPath id="clip0_33_10902">
<rect width="154" height="43" fill="white"/>
</clipPath>
</defs>
</svg>
