<svg width="18" height="19" viewBox="0 0 18 19" fill="none" xmlns="http://www.w3.org/2000/svg">
<path d="M1.05 18.5H0V12.625L5 11.6L7.9 14.5C8.56667 14.1167 9.18767 13.7043 9.763 13.263C10.3383 12.8217 10.8673 12.359 11.35 11.875C11.8667 11.375 12.35 10.8333 12.8 10.25C13.25 9.66667 13.6583 9.05 14.025 8.4L11.175 5.525L12.1 0.5H18V1.55C18 3.65 17.55 5.71667 16.65 7.75C15.75 9.78333 14.4667 11.6333 12.8 13.3C11.1333 14.9667 9.27933 16.25 7.238 17.15C5.19667 18.05 3.134 18.5 1.05 18.5Z" fill="black"/>
</svg>
